# xmcd CD database file
#
# Track frame offsets:
#	150
#	40033
#	92753
#	124765
#	141725
#	175483
#
# Disc length: 3142 seconds
#
# Revision: 0
# Processed by: cddbd v1.5.1PL0 Copyright (c) Steve Scherf et al.
# Submitted via: CDex 1.51
#
DISCID=540c4406
DTITLE=Machito - Live At North Sea '82
DYEAR=1900
DGENRE=Salsa
TTITLE0=Buenas Noches Che Che
TTITLE1=Tibiri Tabara
TTITLE2=Oye La Rumba
TTITLE3=No Seras Mio
TTITLE4=Dale Jamon
TTITLE5=Mambo Inn
EXTD=
EXTT0=
EXTT1=
EXTT2=
EXTT3=
EXTT4=
EXTT5=
PLAYORDER=
